<?xml version="1.0" encoding="UTF-8"?>
<svg id="Laag_1" xmlns="http://www.w3.org/2000/svg" xmlns:xlink="http://www.w3.org/1999/xlink" version="1.1" viewBox="0 0 1124.39 255.6">
  <!-- Generator: Adobe Illustrator 30.7.0, SVG Export Plug-In . SVG Version: 2.1.4 Build 114)  -->
  <defs>
    <style>
      .st0 {
        fill: none;
      }

      .st1 {
        fill: #e4ac51;
      }

      .st2 {
        fill: #301111;
      }

      .st3 {
        clip-path: url(#clippath);
      }
    </style>
    <clipPath id="clippath">
      <path class="st0" d="M518.81-2v196.35h196.35V-2h-196.35ZM556.83,98.44c-5.48-1.5-11.27-2.26-17.37-2.26-6.91,0-13.44,1-19.58,2.98-.03-.99-.07-1.98-.07-2.98,0-11.19,1.72-21.92,5.07-31.94,4.73-.65,9.58-.97,14.57-.97,8.41,0,16.43.92,24.07,2.76-4.46,8.68-6.74,18.81-6.74,30.16,0,.76.02,1.51.04,2.26h.01Z"/>
    </clipPath>
  </defs>
  <path class="st2" d="M0,157.08v-51.02h12.4l13.54,35.84h.57l13.54-35.84h12.47v51.02h-9.55v-25.15l.57-8.48h-.57l-12.97,33.63h-7.48l-13.04-33.63h-.57l.57,8.48v25.15H0Z"/>
  <path class="st2" d="M73.97,158.22c-2.57,0-4.83-.51-6.81-1.53-1.97-1.02-3.53-2.46-4.67-4.31-1.14-1.85-1.71-3.99-1.71-6.41s.65-4.68,1.96-6.48c1.31-1.81,3.06-3.21,5.27-4.2,2.21-1,4.67-1.5,7.38-1.5,1.47,0,2.81.08,4.03.25,1.21.17,2.29.37,3.24.61s1.73.5,2.35.78v-1.57c0-1.95-.74-3.55-2.21-4.81-1.47-1.26-3.49-1.89-6.06-1.89-1.71,0-3.36.39-4.95,1.18-1.59.78-2.91,1.82-3.96,3.1l-5.99-4.7c1.19-1.52,2.57-2.82,4.13-3.88s3.3-1.88,5.2-2.42c1.9-.55,3.89-.82,5.99-.82,5.56,0,9.79,1.28,12.68,3.85,2.9,2.57,4.35,6.32,4.35,11.26v22.38h-9.19v-3.71h-.57c-.67.86-1.5,1.65-2.49,2.39-1,.74-2.16,1.33-3.49,1.78-1.33.45-2.83.68-4.49.68v-.03ZM76.18,150.95c1.9,0,3.5-.42,4.81-1.25s2.3-1.91,2.99-3.24c.69-1.33,1.03-2.73,1.03-4.2-1.05-.52-2.23-.94-3.56-1.25-1.33-.31-2.68-.46-4.06-.46-2.76,0-4.66.52-5.7,1.57-1.05,1.05-1.57,2.33-1.57,3.85,0,1.42.51,2.61,1.53,3.56s2.53,1.43,4.52,1.43h.01Z"/>
  <path class="st2" d="M115.8,158.22c-4.47,0-7.82-1.38-10.05-4.13s-3.35-6.51-3.35-11.26v-22.09h9.33v20.95c0,2.47.61,4.41,1.82,5.81s2.77,2.1,4.67,2.1,3.42-.46,4.7-1.39,2.27-2.17,2.96-3.74,1.03-3.3,1.03-5.2v-18.53h9.33v36.34h-8.77v-4.56h-.57c-.71,1.14-1.64,2.14-2.78,2.99s-2.41,1.52-3.81,2c-1.4.47-2.91.71-4.52.71h.01Z"/>
  <path class="st2" d="M145.23,157.08v-36.34h8.76v4.85h.57c.62-1.14,1.44-2.15,2.46-3.03s2.22-1.58,3.6-2.1,2.85-.78,4.42-.78c.95,0,1.81.07,2.57.21.76.14,1.43.33,2,.57v9.34c-1-.38-1.98-.7-2.96-.96-.97-.26-2.01-.39-3.1-.39-1.85,0-3.46.46-4.81,1.39-1.35.93-2.39,2.19-3.1,3.78s-1.07,3.38-1.07,5.38v18.1h-9.33v-.02Z"/>
  <path class="st2" d="M179.93,116.75c-1.66,0-3.09-.59-4.28-1.78s-1.78-2.61-1.78-4.28.59-3.08,1.78-4.24c1.19-1.16,2.61-1.75,4.28-1.75s3.08.58,4.24,1.75c1.16,1.16,1.75,2.58,1.75,4.24s-.58,3.09-1.75,4.28c-1.16,1.19-2.58,1.78-4.24,1.78ZM175.23,157.08v-36.34h9.33v36.34h-9.33Z"/>
  <path class="st2" d="M190.83,128.72v-7.98h6.7v7.98h-6.7ZM209.22,157.65c-3.75,0-6.7-1.08-8.84-3.24s-3.21-5.14-3.21-8.94v-34.99h9.33v33.28c0,1.76.36,3.05,1.07,3.88s1.88,1.25,3.49,1.25c.76,0,1.47-.11,2.14-.32.66-.21,1.5-.63,2.49-1.25v9.12c-1.05.38-2.1.68-3.17.89-1.07.21-2.17.32-3.31.32h0ZM206.15,128.72v-7.98h9.26v7.98h-9.26Z"/>
  <path class="st2" d="M235.87,158.22c-3.14,0-5.81-.45-8.02-1.35-2.21-.9-4-2.09-5.38-3.56s-2.4-3.09-3.06-4.85l8.34-3.63c.81,1.71,1.9,3.01,3.28,3.88,1.38.88,2.99,1.32,4.85,1.32,1.52,0,2.9-.25,4.13-.75,1.23-.5,1.85-1.41,1.85-2.74,0-.95-.32-1.7-.96-2.24-.64-.55-1.44-.97-2.39-1.28s-1.92-.56-2.92-.75l-4.28-.93c-1.76-.38-3.42-1.06-4.99-2.03s-2.84-2.21-3.81-3.71-1.46-3.22-1.46-5.17c0-2.18.63-4.09,1.89-5.7s2.97-2.87,5.13-3.78c2.16-.9,4.55-1.35,7.16-1.35,2.42,0,4.61.29,6.56.86s3.63,1.44,5.06,2.6c1.43,1.16,2.57,2.65,3.42,4.45l-7.98,3.49c-.76-1.43-1.75-2.42-2.96-2.99s-2.51-.86-3.88-.86c-1.62,0-2.9.31-3.85.93-.95.62-1.42,1.35-1.42,2.21s.47,1.69,1.42,2.35c.95.67,2.09,1.16,3.42,1.5l5.34,1.28c3.61.86,6.33,2.23,8.16,4.13,1.83,1.9,2.74,4.18,2.74,6.84,0,2.38-.69,4.45-2.07,6.24-1.38,1.78-3.23,3.16-5.56,4.13s-4.92,1.46-7.77,1.46h.01Z"/>
  <path class="st2" d="M898.59,157.13v-51.19h20.02c2.95,0,5.61.61,7.97,1.82,2.36,1.22,4.23,2.82,5.61,4.83,1.38,2,2.07,4.24,2.07,6.72,0,2.67-.66,4.93-1.97,6.79s-2.94,3.27-4.9,4.22v.57c2.62.91,4.73,2.4,6.33,4.47,1.6,2.07,2.4,4.59,2.4,7.54s-.75,5.42-2.25,7.54-3.53,3.77-6.08,4.93c-2.55,1.17-5.37,1.75-8.47,1.75h-20.73ZM903.95,135.11v-8.29h13.94c1.48,0,2.73-.27,3.75-.82s1.81-1.3,2.36-2.25.82-1.98.82-3.07-.26-2.17-.79-3.07c-.52-.9-1.29-1.63-2.29-2.18s-2.19-.82-3.57-.82h-9.94v33.75h10.73c1.62,0,2.98-.29,4.08-.86,1.1-.57,1.93-1.36,2.5-2.36s.86-2.12.86-3.36-.29-2.43-.86-3.43-1.43-1.79-2.57-2.36-2.57-.86-4.29-.86h-14.73v-.02Z"/>
  <path class="st2" d="M956.29,158.28c-4.48,0-7.84-1.38-10.08-4.15-2.24-2.76-3.36-6.53-3.36-11.3v-22.17h9.37v21.02c0,2.48.61,4.42,1.82,5.83s2.78,2.11,4.68,2.11,3.43-.46,4.72-1.39,2.28-2.18,2.97-3.75c.69-1.57,1.04-3.31,1.04-5.22v-18.59h9.37v36.47h-8.79v-4.58h-.57c-.72,1.14-1.64,2.15-2.79,3-1.14.86-2.42,1.53-3.83,2-1.41.48-2.92.72-4.54.72h0Z"/>
  <path class="st2" d="M1002.63,173.72c-3.29,0-6.14-.51-8.54-1.54-2.41-1.03-4.37-2.35-5.9-3.97s-2.6-3.31-3.22-5.08l8.79-3.58c.76,1.76,1.92,3.18,3.47,4.25s3.35,1.61,5.4,1.61c2.91,0,5.24-.89,7.01-2.68,1.76-1.79,2.65-4.37,2.65-7.76v-2.86h-.57c-1.14,1.62-2.65,2.86-4.5,3.72-1.86.86-3.98,1.29-6.36,1.29-2.96,0-5.73-.76-8.33-2.29-2.6-1.53-4.7-3.69-6.29-6.51-1.6-2.81-2.4-6.15-2.4-10.01s.8-7.26,2.4-10.05c1.6-2.79,3.69-4.94,6.29-6.47,2.6-1.52,5.37-2.29,8.33-2.29,2.38,0,4.5.42,6.36,1.25s3.36,2.09,4.5,3.75h.57v-3.86h9.01v33.96c0,3.91-.76,7.29-2.29,10.15-1.53,2.86-3.68,5.06-6.47,6.61s-6.09,2.32-9.9,2.32v.04ZM1002.77,148.62c1.67,0,3.23-.39,4.68-1.18s2.62-1.95,3.5-3.5,1.32-3.42,1.32-5.61-.44-4.19-1.32-5.72c-.88-1.52-2.05-2.67-3.5-3.43s-3.02-1.14-4.68-1.14-3.24.38-4.72,1.14-2.66,1.91-3.54,3.43c-.88,1.53-1.32,3.43-1.32,5.72s.44,4.14,1.32,5.68c.88,1.55,2.06,2.71,3.54,3.47s3.05,1.14,4.72,1.14Z"/>
  <path class="st2" d="M1027.58,128.68v-8.01h6.72v8.01h-6.72ZM1046.03,157.71c-3.77,0-6.72-1.08-8.87-3.25s-3.22-5.16-3.22-8.97v-35.11h9.37v33.39c0,1.76.36,3.06,1.07,3.9.72.83,1.88,1.25,3.5,1.25.76,0,1.48-.11,2.15-.32s1.5-.63,2.5-1.25v9.15c-1.05.38-2.11.68-3.18.89-1.07.21-2.18.32-3.32.32h0ZM1042.95,128.68v-8.01h9.29v8.01h-9.29Z"/>
  <path class="st2" d="M1075.27,158.28c-3.67,0-6.95-.83-9.83-2.5s-5.15-3.96-6.79-6.86c-1.64-2.91-2.47-6.22-2.47-9.94,0-3.48.81-6.7,2.43-9.65,1.62-2.96,3.84-5.33,6.65-7.11,2.81-1.79,6.03-2.68,9.65-2.68,3.91,0,7.2.83,9.87,2.5s4.69,3.9,6.08,6.69c1.38,2.79,2.07,5.88,2.07,9.26,0,.76-.02,1.42-.07,1.97-.05.55-.1.94-.14,1.18h-31.32v-6.65h22.52c-.05-.81-.29-1.64-.72-2.5-.43-.86-1.03-1.64-1.79-2.36s-1.68-1.3-2.75-1.75-2.3-.68-3.68-.68c-1.81,0-3.47.48-4.97,1.43s-2.68,2.28-3.54,3.97-1.29,3.71-1.29,6.04.45,4.49,1.36,6.18c.9,1.69,2.13,2.98,3.68,3.86s3.28,1.32,5.18,1.32c2.24,0,4.12-.49,5.65-1.47,1.52-.98,2.72-2.2,3.58-3.68l7.58,3.72c-1.72,3-3.96,5.38-6.72,7.11-2.77,1.74-6.17,2.61-10.23,2.61h0Z"/>
  <path class="st2" d="M1099.94,157.13v-36.47h8.79v4.86h.57c.62-1.14,1.44-2.16,2.47-3.04,1.02-.88,2.23-1.58,3.61-2.11,1.38-.52,2.86-.79,4.43-.79.95,0,1.81.07,2.57.21.76.14,1.43.33,2,.57v9.37c-1-.38-1.99-.7-2.97-.97-.98-.26-2.01-.39-3.11-.39-1.86,0-3.47.46-4.83,1.39s-2.4,2.19-3.11,3.79c-.72,1.6-1.07,3.4-1.07,5.4v18.16h-9.37l.02.02Z"/>
  <path class="st2" d="M298.55,219.86V35.74h67.11c12.34,0,23.1,2.49,32.28,7.45,9.17,4.98,16.33,11.83,21.47,20.57,5.14,8.75,7.72,18.77,7.72,30.09,0,8.4-1.76,16.07-5.27,23.02-3.52,6.94-8.32,12.95-14.4,18s-13.2,8.96-21.34,11.7c-8.15,2.75-16.84,4.12-26.1,4.12h-42.17v-31.89h47.57c5.31,0,9.94-1.12,13.89-3.35,3.94-2.22,7.08-5.27,9.39-9.13,2.32-3.85,3.47-8.19,3.47-12.98,0-4.46-.99-8.61-2.96-12.47-1.97-3.85-4.93-6.98-8.87-9.39-3.94-2.4-8.75-3.6-14.4-3.6h-32.66v151.97h-34.73ZM339.18,136.29h40.63l57.09,81.51v2.06h-39.86l-57.86-83.57h0Z"/>
  <path class="st1" d="M616.99,192.35c-13.72,0-26.44-2.44-38.18-7.33-11.75-4.88-21.95-11.74-30.61-20.57-8.66-8.83-15.39-19.07-20.18-30.73-4.8-11.65-7.2-24.17-7.2-37.54s2.4-25.88,7.2-37.54c4.8-11.65,11.53-21.9,20.18-30.73,8.66-8.83,18.86-15.68,30.61-20.57C590.55,2.45,603.28.01,616.99.01s26.4,2.44,38.06,7.33c11.66,4.88,21.86,11.74,30.61,20.57,8.74,8.83,15.51,19.08,20.31,30.73,4.8,11.66,7.2,24.17,7.2,37.54s-2.4,25.89-7.2,37.54c-4.8,11.66-11.57,21.9-20.31,30.73-8.75,8.83-18.95,15.69-30.61,20.57s-24.34,7.33-38.06,7.33h0ZM616.99,159.43c11.48,0,21.86-2.66,31.11-7.97,9.26-5.31,16.63-12.73,22.12-22.24,5.49-9.52,8.23-20.53,8.23-33.05s-2.74-23.74-8.23-33.17c-5.49-9.42-12.86-16.79-22.12-22.11-9.25-5.31-19.63-7.97-31.11-7.97s-21.6,2.66-30.86,7.97c-9.26,5.32-16.63,12.69-22.12,22.11-5.49,9.44-8.22,20.49-8.22,33.17s2.74,23.53,8.22,33.05c5.49,9.51,12.86,16.93,22.12,22.24s19.54,7.97,30.86,7.97Z"/>
  <path class="st2" d="M539.46,255.6c-13.72,0-26.44-2.44-38.18-7.33-11.75-4.88-21.95-11.74-30.61-20.57-8.66-8.83-15.39-19.07-20.18-30.73-4.8-11.65-7.2-24.17-7.2-37.54s2.4-25.88,7.2-37.54c4.8-11.65,11.53-21.9,20.18-30.73,8.66-8.83,18.86-15.68,30.61-20.57,11.74-4.89,24.47-7.33,38.18-7.33s26.4,2.44,38.06,7.33c11.66,4.88,21.86,11.74,30.61,20.57,8.74,8.83,15.51,19.08,20.31,30.73,4.8,11.66,7.2,24.17,7.2,37.54s-2.4,25.89-7.2,37.54c-4.8,11.66-11.57,21.9-20.31,30.73-8.75,8.83-18.95,15.69-30.61,20.57s-24.34,7.33-38.06,7.33h0ZM539.46,222.69c11.48,0,21.86-2.66,31.11-7.97,9.26-5.31,16.63-12.73,22.12-22.24,5.49-9.52,8.23-20.53,8.23-33.05s-2.74-23.74-8.23-33.17c-5.49-9.42-12.86-16.79-22.12-22.11-9.25-5.31-19.63-7.97-31.11-7.97s-21.6,2.66-30.86,7.97c-9.26,5.32-16.63,12.69-22.12,22.11-5.49,9.44-8.22,20.49-8.22,33.17s2.74,23.53,8.22,33.05c5.49,9.51,12.86,16.93,22.12,22.24s19.54,7.97,30.86,7.97Z"/>
  <g class="st3">
    <path class="st1" d="M616.99,192.35c-13.72,0-26.44-2.44-38.18-7.33-11.75-4.88-21.95-11.74-30.61-20.57-8.66-8.83-15.39-19.07-20.18-30.73-4.8-11.65-7.2-24.17-7.2-37.54s2.4-25.88,7.2-37.54c4.8-11.65,11.53-21.9,20.18-30.73,8.66-8.83,18.86-15.68,30.61-20.57C590.55,2.45,603.28.01,616.99.01s26.4,2.44,38.06,7.33c11.66,4.88,21.86,11.74,30.61,20.57,8.74,8.83,15.51,19.08,20.31,30.73,4.8,11.66,7.2,24.17,7.2,37.54s-2.4,25.89-7.2,37.54c-4.8,11.66-11.57,21.9-20.31,30.73-8.75,8.83-18.95,15.69-30.61,20.57s-24.34,7.33-38.06,7.33h0ZM616.99,159.43c11.48,0,21.86-2.66,31.11-7.97,9.26-5.31,16.63-12.73,22.12-22.24,5.49-9.52,8.23-20.53,8.23-33.05s-2.74-23.74-8.23-33.17c-5.49-9.42-12.86-16.79-22.12-22.11-9.25-5.31-19.63-7.97-31.11-7.97s-21.6,2.66-30.86,7.97c-9.26,5.32-16.63,12.69-22.12,22.11-5.49,9.44-8.22,20.49-8.22,33.17s2.74,23.53,8.22,33.05c5.49,9.51,12.86,16.93,22.12,22.24s19.54,7.97,30.86,7.97Z"/>
  </g>
  <path class="st2" d="M788.3,223.98c-10.46,0-20.27-1.97-29.44-5.91s-17.15-9.81-23.91-17.61c-6.77-7.8-11.87-17.36-15.3-28.68l32.66-12.86c2.4,9.09,6.6,16.72,12.6,22.89s13.89,9.25,23.66,9.25c4.8,0,9.34-.81,13.63-2.44,4.28-1.63,7.75-4.07,10.42-7.33,2.66-3.25,3.99-7.28,3.99-12.09s-1.12-8.61-3.35-11.96c-2.23-3.34-5.96-6.51-11.19-9.51s-12.3-6.13-21.21-9.39l-11.31-4.12c-4.97-1.88-9.99-4.24-15.04-7.07-5.06-2.83-9.69-6.34-13.89-10.54s-7.58-9.04-10.16-14.53c-2.57-5.48-3.85-11.74-3.85-18.77,0-9.6,2.48-18.29,7.46-26.1,4.97-7.8,11.91-14.02,20.82-18.65,8.91-4.63,19.29-6.94,31.11-6.94s22.54,2.1,30.61,6.3c8.05,4.2,14.35,9.3,18.9,15.3,4.54,6,7.75,11.83,9.64,17.48l-30.6,12.86c-1.03-3.43-2.74-6.69-5.14-9.77-2.4-3.09-5.49-5.57-9.26-7.46-3.77-1.88-8.32-2.83-13.63-2.83-4.97,0-9.43.82-13.37,2.44-3.94,1.63-7.03,3.86-9.25,6.69-2.23,2.83-3.35,6.13-3.35,9.9,0,5.49,2.35,10.2,7.08,14.14,4.71,3.95,12.3,7.63,22.76,11.06l11.57,3.86c6.51,2.23,12.73,4.85,18.65,7.84,5.91,3,11.18,6.73,15.81,11.19,4.63,4.46,8.27,9.77,10.92,15.94,2.66,6.17,3.99,13.55,3.99,22.12,0,9.43-1.88,17.66-5.66,24.69-3.77,7.03-8.74,12.78-14.91,17.23-6.18,4.46-12.99,7.8-20.45,10.03-7.46,2.22-14.78,3.34-21.99,3.34h-.02Z"/>
</svg>